<?xml version="1.0" encoding="UTF-8"?>
<!DOCTYPE svg PUBLIC "-//W3C//DTD SVG 1.1//EN" "http://www.w3.org/Graphics/SVG/1.1/DTD/svg11.dtd">
<svg xmlns="http://www.w3.org/2000/svg" version="1.1" viewBox="318.752 276.956 358.748 399.544" style="shape-rendering:geometricPrecision; text-rendering:geometricPrecision; image-rendering:optimizeQuality; fill-rule:evenodd; clip-rule:evenodd" xmlns:xlink="http://www.w3.org/1999/xlink">
<g><path style="opacity:1" fill="#63b1e5" d="M 459.5,311.5 C 455.327,310.642 450.993,309.976 446.5,309.5C 447.008,302.175 443.674,299.342 436.5,301C 429.433,305.995 424.433,312.495 421.5,320.5C 420.737,319.732 419.737,319.232 418.5,319C 418.833,318.667 419.167,318.333 419.5,318C 417.833,317.667 416.167,317.333 414.5,317C 415.654,316.086 415.487,315.253 414,314.5C 413.926,318.584 412.426,321.917 409.5,324.5C 411.643,308.712 418.643,295.545 430.5,285C 444.508,276.956 455.008,280.123 462,294.5C 462.167,296.333 462.333,298.167 462.5,300C 462.646,304.255 461.646,308.088 459.5,311.5 Z"/></g>
<g><path style="opacity:1" fill="#61b4e6" d="M 506.5,311.5 C 512.386,310.343 517.219,312.01 521,316.5C 525,323.167 529,329.833 533,336.5C 533.781,337.944 533.614,339.277 532.5,340.5C 498.932,354.617 465.599,369.284 432.5,384.5C 425.708,373.75 419.041,362.917 412.5,352C 412.833,351.667 413.167,351.333 413.5,351C 444.887,338.491 475.887,325.324 506.5,311.5 Z"/></g>
<g><path style="opacity:1" fill="#5e93d3" d="M 446.5,309.5 C 450.993,309.976 455.327,310.642 459.5,311.5C 458.873,315.42 457.207,318.753 454.5,321.5C 454.217,320.711 453.717,320.044 453,319.5C 449.576,321.337 446.076,322.004 442.5,321.5C 444.399,317.698 445.733,313.698 446.5,309.5 Z"/></g>
<g><path style="opacity:1" fill="#b8a9a3" d="M 380.5,318.5 C 390.599,317.126 398.265,320.626 403.5,329C 403.22,330.395 402.553,331.562 401.5,332.5C 396.926,329.361 391.926,328.195 386.5,329C 381.74,332.491 380.407,336.991 382.5,342.5C 376.755,344.987 372.921,343.32 371,337.5C 369.936,328.96 373.103,322.627 380.5,318.5 Z"/></g>
<g><path style="opacity:1" fill="#60a1db" d="M 421.5,320.5 C 418.892,328.042 416.725,335.709 415,343.5C 412.334,344.893 409.834,346.559 407.5,348.5C 406.354,340.337 407.021,332.337 409.5,324.5C 412.426,321.917 413.926,318.584 414,314.5C 415.487,315.253 415.654,316.086 414.5,317C 416.167,317.333 417.833,317.667 419.5,318C 419.167,318.333 418.833,318.667 418.5,319C 419.737,319.232 420.737,319.732 421.5,320.5 Z"/></g>
<g><path style="opacity:1" fill="#5b86cb" d="M 454.5,321.5 C 452.384,324.789 450.051,327.956 447.5,331C 441.198,333.764 434.864,336.097 428.5,338C 434.016,333.078 438.682,327.578 442.5,321.5C 446.076,322.004 449.576,321.337 453,319.5C 453.717,320.044 454.217,320.711 454.5,321.5 Z"/></g>
<g><path style="opacity:1" fill="#5c81ca" d="M 359.5,346.5 C 363.534,346.505 367.534,346.838 371.5,347.5C 371.149,350.238 370.482,352.904 369.5,355.5C 367.031,356.168 364.698,356.835 362.5,357.5C 360.5,357.833 358.5,358.167 356.5,358.5C 356.682,356.409 356.348,354.409 355.5,352.5C 357.897,350.704 359.23,348.704 359.5,346.5 Z"/></g>
<g><path style="opacity:1" fill="#9396c6" d="M 526.5,350.5 C 526.158,349.662 525.492,349.328 524.5,349.5C 526.739,348.458 528.905,347.125 531,345.5C 530.185,347.499 528.685,349.165 526.5,350.5 Z"/></g>
<g><path style="opacity:1" fill="#6098d7" d="M 371.5,347.5 C 380.697,348.069 389.364,350.403 397.5,354.5C 394.861,357.399 391.694,359.399 388,360.5C 379.686,357.979 371.186,356.979 362.5,357.5C 364.698,356.835 367.031,356.168 369.5,355.5C 370.482,352.904 371.149,350.238 371.5,347.5 Z"/></g>
<g><path style="opacity:1" fill="#5f6cbd" d="M 359.5,346.5 C 359.23,348.704 357.897,350.704 355.5,352.5C 356.348,354.409 356.682,356.409 356.5,358.5C 349.921,358.741 346.921,362.075 347.5,368.5C 347.5,369.5 347.5,370.5 347.5,371.5C 344.679,371.539 342.012,372.205 339.5,373.5C 339.808,374.308 340.308,374.975 341,375.5C 341.718,374.549 342.551,374.383 343.5,375C 343.017,378.462 341.85,378.962 340,376.5C 339.383,377.449 339.549,378.282 340.5,379C 339.207,379.49 337.873,379.657 336.5,379.5C 325.509,374.5 322.676,366.5 328,355.5C 336.833,347.162 347.333,344.162 359.5,346.5 Z"/></g>
<g><path style="opacity:1" fill="#616dbf" d="M 382.5,420.5 C 382.286,418.856 382.62,417.356 383.5,416C 386.187,415.659 388.187,414.326 389.5,412C 390.793,411.51 392.127,411.343 393.5,411.5C 393.5,410.5 393.5,409.5 393.5,408.5C 396.374,407.937 399.04,406.937 401.5,405.5C 401.22,402.612 402.553,401.112 405.5,401C 403.893,399.951 403.227,398.451 403.5,396.5C 401.8,396.374 400.3,395.707 399,394.5C 397.56,395.148 396.06,395.481 394.5,395.5C 394.657,396.873 394.49,398.207 394,399.5C 392.86,397.922 392.36,396.256 392.5,394.5C 391.5,395.167 390.5,395.833 389.5,396.5C 384.739,392.236 379.573,388.569 374,385.5C 372.739,385.759 371.739,386.426 371,387.5C 369.887,386.695 368.721,386.028 367.5,385.5C 379.89,374.794 392.89,364.794 406.5,355.5C 408.459,356.748 409.959,358.415 411,360.5C 415.667,368.5 420.333,376.5 425,384.5C 425.92,387.308 425.087,389.475 422.5,391C 409.289,401.051 395.956,410.884 382.5,420.5 Z"/></g>
<g><path style="opacity:1" fill="#414798" d="M 524.5,349.5 C 525.492,349.328 526.158,349.662 526.5,350.5C 504.481,368.19 482.481,385.857 460.5,403.5C 456.713,396.916 453.713,389.916 451.5,382.5C 475.409,370.715 499.742,359.715 524.5,349.5 Z"/></g>
<g><path style="opacity:1" fill="#6c75bf" d="M 347.5,368.5 C 350.604,371.033 354.271,372.033 358.5,371.5C 364.679,371.531 370.679,370.531 376.5,368.5C 376.833,368.833 377.167,369.167 377.5,369.5C 373.189,372.48 369.189,375.813 365.5,379.5C 365.423,376.491 366.756,374.324 369.5,373C 366.333,372.833 363.167,372.667 360,372.5C 356.307,372.584 352.807,373.25 349.5,374.5C 348.5,371.833 347.5,371.833 346.5,374.5C 347.711,375.72 347.711,376.887 346.5,378C 348.481,378.605 348.815,379.605 347.5,381C 351.152,381.499 354.818,381.665 358.5,381.5C 353.684,382.65 348.684,382.816 343.5,382C 340.896,381.61 338.562,380.776 336.5,379.5C 337.873,379.657 339.207,379.49 340.5,379C 339.549,378.282 339.383,377.449 340,376.5C 341.85,378.962 343.017,378.462 343.5,375C 342.551,374.383 341.718,374.549 341,375.5C 340.308,374.975 339.808,374.308 339.5,373.5C 342.012,372.205 344.679,371.539 347.5,371.5C 347.5,370.5 347.5,369.5 347.5,368.5 Z"/></g>
<g><path style="opacity:1" fill="#5967b9" d="M 365.5,379.5 C 363.412,380.939 361.079,381.606 358.5,381.5C 354.818,381.665 351.152,381.499 347.5,381C 348.815,379.605 348.481,378.605 346.5,378C 347.711,376.887 347.711,375.72 346.5,374.5C 347.5,371.833 348.5,371.833 349.5,374.5C 352.807,373.25 356.307,372.584 360,372.5C 363.167,372.667 366.333,372.833 369.5,373C 366.756,374.324 365.423,376.491 365.5,379.5 Z"/></g>
<g><path style="opacity:1" fill="#4d56a9" d="M 451.5,382.5 C 453.713,389.916 456.713,396.916 460.5,403.5C 424.854,419.489 388.854,434.656 352.5,449C 378.396,431.105 403.729,412.439 428.5,393C 435.919,388.957 443.586,385.457 451.5,382.5 Z"/></g>
<g><path style="opacity:1" fill="#dcfcfc" d="M 568.5,402.5 C 566.839,404.328 565.172,406.328 563.5,408.5C 563.687,407.183 563.02,405.85 561.5,404.5C 559.07,403.75 556.736,403.417 554.5,403.5C 553.548,401.955 553.215,400.288 553.5,398.5C 554.494,392.512 555.494,386.512 556.5,380.5C 562.475,381.962 568.475,383.295 574.5,384.5C 572.622,390.575 570.622,396.575 568.5,402.5 Z"/></g>
<g><path style="opacity:1" fill="#5d66ba" d="M 367.5,385.5 C 368.721,386.028 369.887,386.695 371,387.5C 371.739,386.426 372.739,385.759 374,385.5C 379.573,388.569 384.739,392.236 389.5,396.5C 390.5,395.833 391.5,395.167 392.5,394.5C 392.36,396.256 392.86,397.922 394,399.5C 394.49,398.207 394.657,396.873 394.5,395.5C 396.06,395.481 397.56,395.148 399,394.5C 400.3,395.707 401.8,396.374 403.5,396.5C 403.227,398.451 403.893,399.951 405.5,401C 402.553,401.112 401.22,402.612 401.5,405.5C 399.04,406.937 396.374,407.937 393.5,408.5C 393.5,409.5 393.5,410.5 393.5,411.5C 392.127,411.343 390.793,411.51 389.5,412C 388.187,414.326 386.187,415.659 383.5,416C 382.62,417.356 382.286,418.856 382.5,420.5C 380.343,422.412 378.009,424.079 375.5,425.5C 374.348,423.312 372.848,423.312 371,425.5C 368.821,422.989 366.321,420.822 363.5,419C 360.854,418.503 358.187,418.336 355.5,418.5C 355.238,417.022 355.571,415.689 356.5,414.5C 358.916,415.319 359.082,414.652 357,412.5C 356.586,412.957 356.086,413.291 355.5,413.5C 353.972,412.139 352.305,410.972 350.5,410C 351.458,408.853 351.125,407.853 349.5,407C 350.5,406.667 351.5,406.333 352.5,406C 350.413,405.208 348.579,404.041 347,402.5C 346.29,403.973 345.124,404.64 343.5,404.5C 351.097,397.696 359.097,391.363 367.5,385.5 Z"/></g>
<g><path style="opacity:1" fill="#dcfdfd" d="M 521.5,424.5 C 520.839,425.718 520.172,427.051 519.5,428.5C 518.713,427.758 518.047,426.925 517.5,426C 514.173,425.446 511.173,424.946 508.5,424.5C 506.841,410.886 505.841,397.219 505.5,383.5C 511.5,383.5 517.5,383.5 523.5,383.5C 522.667,397.158 522.001,410.825 521.5,424.5 Z"/></g>
<g><path style="opacity:1" fill="#5960b5" d="M 375.5,425.5 C 362.101,435.618 348.601,445.618 335,455.5C 329.257,447.693 324.257,439.359 320,430.5C 318.752,424.16 320.919,419.327 326.5,416C 332.224,412.147 337.891,408.313 343.5,404.5C 345.124,404.64 346.29,403.973 347,402.5C 348.579,404.041 350.413,405.208 352.5,406C 351.5,406.333 350.5,406.667 349.5,407C 351.125,407.853 351.458,408.853 350.5,410C 352.305,410.972 353.972,412.139 355.5,413.5C 356.086,413.291 356.586,412.957 357,412.5C 359.082,414.652 358.916,415.319 356.5,414.5C 355.571,415.689 355.238,417.022 355.5,418.5C 358.187,418.336 360.854,418.503 363.5,419C 366.321,420.822 368.821,422.989 371,425.5C 372.848,423.312 374.348,423.312 375.5,425.5 Z"/></g>
<g><path style="opacity:1" fill="#e7fcfc" d="M 553.5,398.5 C 553.215,400.288 553.548,401.955 554.5,403.5C 556.736,403.417 559.07,403.75 561.5,404.5C 563.02,405.85 563.687,407.183 563.5,408.5C 565.172,406.328 566.839,404.328 568.5,402.5C 565.218,410.347 562.551,418.347 560.5,426.5C 559.89,427.391 559.557,428.391 559.5,429.5C 559.167,429.5 558.833,429.5 558.5,429.5C 558.19,428.262 557.69,428.262 557,429.5C 556.74,431.618 555.74,433.284 554,434.5C 552.421,432.959 550.587,431.792 548.5,431C 547.915,429.698 547.249,428.531 546.5,427.5C 547.354,425.965 547.354,424.632 546.5,423.5C 548.995,415.185 551.328,406.852 553.5,398.5 Z"/></g>
<g><path style="opacity:1" fill="#d3fbfd" d="M 482.5,421.5 C 481.903,421.735 481.57,422.235 481.5,423C 482.479,425.433 483.145,427.933 483.5,430.5C 482.325,430.281 481.325,430.614 480.5,431.5C 481.506,432.396 481.506,433.062 480.5,433.5C 479.476,432.147 478.143,431.48 476.5,431.5C 475.951,433.901 475.118,436.235 474,438.5C 473.617,437.944 473.117,437.611 472.5,437.5C 470.975,434.921 469.641,432.254 468.5,429.5C 468.34,427.847 467.674,426.514 466.5,425.5C 466.23,422.687 465.73,420.021 465,417.5C 469.466,414.514 474.299,412.514 479.5,411.5C 479.698,415.092 480.698,418.426 482.5,421.5 Z"/></g>
<g><path style="opacity:1" fill="#dffcfd" d="M 598.5,440.5 C 598.167,440.5 597.833,440.5 597.5,440.5C 595.983,440.511 594.816,441.177 594,442.5C 593.072,440.665 591.906,440.332 590.5,441.5C 588.821,439.896 586.821,439.229 584.5,439.5C 584.5,437.833 584.5,436.167 584.5,434.5C 588.319,426.861 592.653,419.528 597.5,412.5C 602.203,415.514 606.87,418.514 611.5,421.5C 608.151,426.86 604.318,431.86 600,436.5C 599.209,437.745 598.709,439.078 598.5,440.5 Z"/></g>
<g><path style="opacity:1" fill="#d6fbfb" d="M 444.5,433.5 C 446.466,437.431 448.466,441.431 450.5,445.5C 451.529,447.517 452.529,449.517 453.5,451.5C 452.866,454.999 451.033,455.999 448,454.5C 446.538,456.148 444.705,457.148 442.5,457.5C 440.183,453.854 437.516,450.52 434.5,447.5C 433.214,444.883 431.547,442.55 429.5,440.5C 428.246,437.907 426.58,435.573 424.5,433.5C 428.167,431 431.833,428.5 435.5,426C 436.944,425.219 438.277,425.386 439.5,426.5C 440.943,429.077 442.61,431.41 444.5,433.5 Z"/></g>
<g><path style="opacity:1" fill="#f0fdfe" d="M 508.5,424.5 C 511.173,424.946 514.173,425.446 517.5,426C 518.047,426.925 518.713,427.758 519.5,428.5C 520.172,427.051 520.839,425.718 521.5,424.5C 521.351,431.048 520.684,437.548 519.5,444C 519.977,446.51 520.977,448.676 522.5,450.5C 521.5,450.5 520.5,450.5 519.5,450.5C 518.066,454.011 516.066,457.344 513.5,460.5C 511.889,457.682 510.889,454.349 510.5,450.5C 511.139,449.903 511.472,449.07 511.5,448C 509.053,440.359 508.053,432.525 508.5,424.5 Z"/></g>
<g><path style="opacity:1" fill="#7e81c9" d="M 466.5,425.5 C 467.674,426.514 468.34,427.847 468.5,429.5C 468.995,431.824 468.995,433.991 468.5,436C 469.022,436.95 469.689,437.784 470.5,438.5C 464.222,440.029 458.556,442.695 453.5,446.5C 452.583,445.873 451.583,445.539 450.5,445.5C 448.466,441.431 446.466,437.431 444.5,433.5C 451.838,430.831 459.171,428.164 466.5,425.5 Z"/></g>
<g><path style="opacity:1" fill="#8281c6" d="M 482.5,421.5 C 490.782,428.939 499.282,436.273 508,443.5C 508.591,444.483 508.257,445.15 507,445.5C 505.1,446.077 503.267,446.744 501.5,447.5C 497.362,448.77 493.362,450.437 489.5,452.5C 488.641,450 487.641,447.667 486.5,445.5C 486.022,440.273 485.022,435.273 483.5,430.5C 483.145,427.933 482.479,425.433 481.5,423C 481.57,422.235 481.903,421.735 482.5,421.5 Z"/></g>
<g><path style="opacity:1" fill="#7f82c6" d="M 546.5,423.5 C 547.354,424.632 547.354,425.965 546.5,427.5C 544.192,435.4 542.192,443.4 540.5,451.5C 534.072,450.287 528.072,447.953 522.5,444.5C 530.52,437.478 538.52,430.478 546.5,423.5 Z"/></g>
<g><path style="opacity:1" fill="#7b83c8" d="M 560.5,426.5 C 567.862,429.954 575.529,432.621 583.5,434.5C 581.863,437.817 580.196,441.15 578.5,444.5C 574.208,444.435 570.375,443.102 567,440.5C 566.085,441.328 565.419,442.328 565,443.5C 559.508,440.195 557.675,435.528 559.5,429.5C 559.557,428.391 559.89,427.391 560.5,426.5 Z"/></g>
<g><path style="opacity:1" fill="#eff9fa" d="M 583.5,434.5 C 583.833,434.5 584.167,434.5 584.5,434.5C 584.5,436.167 584.5,437.833 584.5,439.5C 586.821,439.229 588.821,439.896 590.5,441.5C 591.906,440.332 593.072,440.665 594,442.5C 594.816,441.177 595.983,440.511 597.5,440.5C 591.742,449.018 585.742,457.352 579.5,465.5C 578.781,463.683 577.781,463.016 576.5,463.5C 577.548,461.544 578.048,459.544 578,457.5C 576.172,457.31 574.338,456.977 572.5,456.5C 573.975,452.217 575.975,448.217 578.5,444.5C 580.196,441.15 581.863,437.817 583.5,434.5 Z"/></g>
<g><path style="opacity:1" fill="#e1fbfb" d="M 483.5,430.5 C 485.022,435.273 486.022,440.273 486.5,445.5C 488.342,451.497 488.509,457.497 487,463.5C 485.644,464.38 484.144,464.714 482.5,464.5C 481.89,463.609 481.557,462.609 481.5,461.5C 480.201,459.588 479.201,457.588 478.5,455.5C 475.905,449.715 473.905,443.715 472.5,437.5C 473.117,437.611 473.617,437.944 474,438.5C 475.118,436.235 475.951,433.901 476.5,431.5C 478.143,431.48 479.476,432.147 480.5,433.5C 481.506,433.062 481.506,432.396 480.5,431.5C 481.325,430.614 482.325,430.281 483.5,430.5 Z"/></g>
<g><path style="opacity:1" fill="#8885c5" d="M 558.5,429.5 C 558.833,429.5 559.167,429.5 559.5,429.5C 557.675,435.528 559.508,440.195 565,443.5C 565.419,442.328 566.085,441.328 567,440.5C 570.375,443.102 574.208,444.435 578.5,444.5C 575.975,448.217 573.975,452.217 572.5,456.5C 570.677,458.795 568.844,461.129 567,463.5C 561.567,461.357 556.233,459.024 551,456.5C 550.333,455.167 550.333,453.833 551,452.5C 554.006,444.981 556.506,437.314 558.5,429.5 Z"/></g>
<g><path style="opacity:1" fill="#7799d5" d="M 597.5,440.5 C 597.833,440.5 598.167,440.5 598.5,440.5C 606.652,443.656 614.652,446.99 622.5,450.5C 621.618,452.384 620.118,453.717 618,454.5C 617.727,456.329 616.893,457.829 615.5,459C 616.985,460.756 616.652,461.923 614.5,462.5C 613.998,460.915 612.998,460.415 611.5,461C 606.645,465.855 601.812,470.688 597,475.5C 591.047,473.46 585.214,471.127 579.5,468.5C 578.438,467.575 578.438,466.575 579.5,465.5C 585.742,457.352 591.742,449.018 597.5,440.5 Z"/></g>
<g><path style="opacity:1" fill="#9182c3" d="M 429.5,440.5 C 431.547,442.55 433.214,444.883 434.5,447.5C 434.539,448.583 434.873,449.583 435.5,450.5C 434.295,452.138 432.962,452.471 431.5,451.5C 427.566,453.519 423.4,454.852 419,455.5C 417.667,454.833 416.333,454.167 415,453.5C 413.736,455.607 411.903,456.607 409.5,456.5C 409.5,455.5 409.5,454.5 409.5,453.5C 407.801,453.66 406.134,453.494 404.5,453C 407.742,452.717 408.076,451.883 405.5,450.5C 405.863,449.817 406.196,449.15 406.5,448.5C 413.821,445.059 421.487,442.392 429.5,440.5 Z"/></g>
<g><path style="opacity:1" fill="#9485c1" d="M 468.5,429.5 C 469.641,432.254 470.975,434.921 472.5,437.5C 473.905,443.715 475.905,449.715 478.5,455.5C 473.014,458.408 467.348,461.075 461.5,463.5C 458.415,459.754 455.749,455.754 453.5,451.5C 452.529,449.517 451.529,447.517 450.5,445.5C 451.583,445.539 452.583,445.873 453.5,446.5C 458.556,442.695 464.222,440.029 470.5,438.5C 469.689,437.784 469.022,436.95 468.5,436C 468.995,433.991 468.995,431.824 468.5,429.5 Z"/></g>
<g><path style="opacity:1" fill="#9a84c0" d="M 434.5,447.5 C 437.516,450.52 440.183,453.854 442.5,457.5C 442.833,458.167 443.167,458.833 443.5,459.5C 443.631,460.239 443.464,460.906 443,461.5C 440.095,459.907 436.929,458.907 433.5,458.5C 432.281,459.263 431.281,460.263 430.5,461.5C 426.502,460.24 422.502,460.24 418.5,461.5C 416.027,458.415 413.36,458.082 410.5,460.5C 408.868,459.703 407.368,458.703 406,457.5C 401.532,457.747 397.198,457.747 393,457.5C 391.933,456.809 390.766,456.309 389.5,456C 390.056,455.617 390.389,455.117 390.5,454.5C 395.61,451.947 400.943,449.947 406.5,448.5C 406.196,449.15 405.863,449.817 405.5,450.5C 408.076,451.883 407.742,452.717 404.5,453C 406.134,453.494 407.801,453.66 409.5,453.5C 409.5,454.5 409.5,455.5 409.5,456.5C 411.903,456.607 413.736,455.607 415,453.5C 416.333,454.167 417.667,454.833 419,455.5C 423.4,454.852 427.566,453.519 431.5,451.5C 432.962,452.471 434.295,452.138 435.5,450.5C 434.873,449.583 434.539,448.583 434.5,447.5 Z"/></g>
<g><path style="opacity:1" fill="#68ade3" d="M 622.5,450.5 C 635.709,454.904 648.709,459.904 661.5,465.5C 652.463,474.705 642.963,483.371 633,491.5C 625.017,488.924 617.517,485.424 610.5,481C 614.356,477.643 618.356,474.476 622.5,471.5C 619.811,468.48 617.144,465.48 614.5,462.5C 616.652,461.923 616.985,460.756 615.5,459C 616.893,457.829 617.727,456.329 618,454.5C 620.118,453.717 621.618,452.384 622.5,450.5 Z"/></g>
<g><path style="opacity:1" fill="#f0f4f7" d="M 486.5,445.5 C 487.641,447.667 488.641,450 489.5,452.5C 493.362,450.437 497.362,448.77 501.5,447.5C 501.389,448.117 501.056,448.617 500.5,449C 502.677,450.202 505.011,450.702 507.5,450.5C 502.642,452.74 497.642,454.906 492.5,457C 491.106,457.956 490.439,459.289 490.5,461C 494.893,478.392 498.393,495.892 501,513.5C 494.925,497.104 488.758,480.771 482.5,464.5C 484.144,464.714 485.644,464.38 487,463.5C 488.509,457.497 488.342,451.497 486.5,445.5 Z"/></g>
<g><path style="opacity:1" fill="#a984b8" d="M 390.5,454.5 C 390.389,455.117 390.056,455.617 389.5,456C 390.766,456.309 391.933,456.809 393,457.5C 397.198,457.747 401.532,457.747 406,457.5C 407.368,458.703 408.868,459.703 410.5,460.5C 413.36,458.082 416.027,458.415 418.5,461.5C 413.256,463.742 409.256,467.408 406.5,472.5C 406.483,474.028 405.816,474.528 404.5,474C 404.833,473.667 405.167,473.333 405.5,473C 404,472.167 402.833,471 402,469.5C 399.688,469.955 397.688,470.955 396,472.5C 395.173,469.584 393.506,468.917 391,470.5C 389.527,470.097 388.194,469.43 387,468.5C 386.751,469.624 386.251,470.624 385.5,471.5C 383.5,470.167 381.5,468.833 379.5,467.5C 378.808,468.025 378.308,468.692 378,469.5C 377.626,468.584 377.126,467.75 376.5,467C 373.938,467.238 371.604,466.238 369.5,464C 370.756,463.583 371.423,462.75 371.5,461.5C 377.72,458.891 384.053,456.558 390.5,454.5 Z"/></g>
<g><path style="opacity:1" fill="#f3f5f7" d="M 453.5,451.5 C 455.749,455.754 458.415,459.754 461.5,463.5C 467.348,461.075 473.014,458.408 478.5,455.5C 479.201,457.588 480.201,459.588 481.5,461.5C 475.822,463.504 470.155,465.504 464.5,467.5C 464.343,468.873 464.51,470.207 465,471.5C 472.912,486.992 481.079,502.325 489.5,517.5C 489.376,518.107 489.043,518.44 488.5,518.5C 478.884,505.044 469.051,491.711 459,478.5C 457.223,476.21 455.056,474.543 452.5,473.5C 453.884,472.199 455.384,472.199 457,473.5C 457.507,472.004 457.007,470.837 455.5,470C 456.258,468.636 455.758,467.469 454,466.5C 453.779,469.943 452.779,470.276 451,467.5C 450.617,468.056 450.117,468.389 449.5,468.5C 448.277,464.951 446.277,461.951 443.5,459.5C 443.167,458.833 442.833,458.167 442.5,457.5C 444.705,457.148 446.538,456.148 448,454.5C 451.033,455.999 452.866,454.999 453.5,451.5 Z"/></g>
<g><path style="opacity:1" fill="#a985b8" d="M 443.5,459.5 C 446.277,461.951 448.277,464.951 449.5,468.5C 443.602,470.7 437.768,473.034 432,475.5C 427.319,470.986 422.819,466.319 418.5,461.5C 422.502,460.24 426.502,460.24 430.5,461.5C 431.281,460.263 432.281,459.263 433.5,458.5C 436.929,458.907 440.095,459.907 443,461.5C 443.464,460.906 443.631,460.239 443.5,459.5 Z"/></g>
<g><path style="opacity:1" fill="#eff2f7" d="M 509.5,450.5 C 509.833,450.5 510.167,450.5 510.5,450.5C 510.889,454.349 511.889,457.682 513.5,460.5C 516.066,457.344 518.066,454.011 519.5,450.5C 518.208,472.169 516.875,493.836 515.5,515.5C 514.833,515.833 514.167,516.167 513.5,516.5C 512.222,494.496 510.889,472.496 509.5,450.5 Z"/></g>
<g><path style="opacity:1" fill="#b888b1" d="M 371.5,461.5 C 371.423,462.75 370.756,463.583 369.5,464C 371.604,466.238 373.938,467.238 376.5,467C 377.126,467.75 377.626,468.584 378,469.5C 378.308,468.692 378.808,468.025 379.5,467.5C 381.5,468.833 383.5,470.167 385.5,471.5C 386.251,470.624 386.751,469.624 387,468.5C 388.194,469.43 389.527,470.097 391,470.5C 393.506,468.917 395.173,469.584 396,472.5C 397.688,470.955 399.688,469.955 402,469.5C 402.833,471 404,472.167 405.5,473C 405.167,473.333 404.833,473.667 404.5,474C 405.816,474.528 406.483,474.028 406.5,472.5C 410.291,475.118 413.957,477.951 417.5,481C 409.057,484.638 400.557,488.138 392,491.5C 382.381,483.551 373.047,475.217 364,466.5C 363.517,465.552 363.351,464.552 363.5,463.5C 366.167,462.833 368.833,462.167 371.5,461.5 Z"/></g>
<g><path style="opacity:1" fill="#8c80c2" d="M 569.5,504.5 C 568.458,503.209 567.292,503.209 566,504.5C 564.716,503.428 564.383,502.095 565,500.5C 562.891,499.965 562.391,498.965 563.5,497.5C 562.349,496.269 561.183,496.269 560,497.5C 559.292,496.619 558.458,495.953 557.5,495.5C 562.735,487.425 568.568,479.758 575,472.5C 580.748,475.29 586.581,477.956 592.5,480.5C 585.513,489.154 577.846,497.154 569.5,504.5 Z"/></g>
<g><path style="opacity:1" fill="#636dbf" d="M 452.5,473.5 C 455.056,474.543 457.223,476.21 459,478.5C 469.051,491.711 478.884,505.044 488.5,518.5C 489.977,524.075 490.977,529.742 491.5,535.5C 490.5,535.5 489.5,535.5 488.5,535.5C 457.702,523.435 427.368,510.268 397.5,496C 406.204,491.657 415.204,488.323 424.5,486C 441.402,498.949 458.735,510.949 476.5,522C 462.676,508.675 449.343,494.842 436.5,480.5C 441.42,477.409 446.753,475.075 452.5,473.5 Z"/></g>
<g><path style="opacity:1" fill="#9c89c6" d="M 601.5,507.5 C 599.282,505.792 597.116,503.792 595,501.5C 594.506,499.866 594.34,498.199 594.5,496.5C 593.167,496.5 591.833,496.5 590.5,496.5C 594.734,492.371 599.401,488.704 604.5,485.5C 611.687,488.925 619.02,492.091 626.5,495C 627.833,495.667 627.833,496.333 626.5,497C 618.145,500.512 609.812,504.012 601.5,507.5 Z"/></g>
<g><path style="opacity:1" fill="#9182c5" d="M 590.5,496.5 C 591.833,496.5 593.167,496.5 594.5,496.5C 594.34,498.199 594.506,499.866 595,501.5C 597.116,503.792 599.282,505.792 601.5,507.5C 593.955,511.106 586.288,514.439 578.5,517.5C 575.819,513.997 572.152,512.33 567.5,512.5C 574.984,506.923 582.65,501.59 590.5,496.5 Z"/></g>
<g><path style="opacity:1" fill="#6d73c2" d="M 507.5,450.5 C 508.167,450.5 508.833,450.5 509.5,450.5C 510.889,472.496 512.222,494.496 513.5,516.5C 513.5,517.833 513.5,519.167 513.5,520.5C 517.431,525.074 520.931,530.074 524,535.5C 525.009,537.025 525.509,538.692 525.5,540.5C 521.071,542.59 516.571,544.59 512,546.5C 503.895,543.195 496.062,539.528 488.5,535.5C 489.5,535.5 490.5,535.5 491.5,535.5C 490.977,529.742 489.977,524.075 488.5,518.5C 489.043,518.44 489.376,518.107 489.5,517.5C 481.079,502.325 472.912,486.992 465,471.5C 464.51,470.207 464.343,468.873 464.5,467.5C 470.155,465.504 475.822,463.504 481.5,461.5C 481.557,462.609 481.89,463.609 482.5,464.5C 488.758,480.771 494.925,497.104 501,513.5C 498.393,495.892 494.893,478.392 490.5,461C 490.439,459.289 491.106,457.956 492.5,457C 497.642,454.906 502.642,452.74 507.5,450.5 Z"/></g>
<g><path style="opacity:1" fill="#a687bd" d="M 404.5,506.5 C 405.391,507.11 406.391,507.443 407.5,507.5C 409.717,510.224 412.217,512.891 415,515.5C 418.058,515.574 420.391,517.24 422,520.5C 422.333,520.167 422.667,519.833 423,519.5C 423.393,521.199 422.893,522.699 421.5,524C 422.009,525.169 422.842,526.002 424,526.5C 424.452,529.877 425.118,533.211 426,536.5C 426.333,536.167 426.667,535.833 427,535.5C 431.264,541.55 436.098,547.05 441.5,552C 440.834,554.788 441.667,557.288 444,559.5C 445.666,558.66 445.833,559.16 444.5,561C 445.09,562.509 445.756,564.009 446.5,565.5C 447.086,565.291 447.586,564.957 448,564.5C 448.684,565.784 448.517,566.951 447.5,568C 449.68,570.864 451.68,573.864 453.5,577C 452.692,577.308 452.025,577.808 451.5,578.5C 452.763,580.029 453.763,581.695 454.5,583.5C 451.088,582.925 448.088,581.592 445.5,579.5C 446.873,579.657 448.207,579.49 449.5,579C 447.021,574.19 443.521,570.357 439,567.5C 436.695,560.887 433.362,554.887 429,549.5C 428.51,548.207 428.343,546.873 428.5,545.5C 426.097,545.607 424.264,544.607 423,542.5C 418.083,533.596 412.416,525.263 406,517.5C 404.763,513.94 404.263,510.273 404.5,506.5 Z"/></g>
<g><path style="opacity:1" fill="#7e7ac3" d="M 557.5,495.5 C 558.458,495.953 559.292,496.619 560,497.5C 561.183,496.269 562.349,496.269 563.5,497.5C 562.391,498.965 562.891,499.965 565,500.5C 564.383,502.095 564.716,503.428 566,504.5C 567.292,503.209 568.458,503.209 569.5,504.5C 564.036,510.465 558.37,516.298 552.5,522C 553.167,522.667 553.833,522.667 554.5,522C 558.508,518.335 562.841,515.168 567.5,512.5C 572.152,512.33 575.819,513.997 578.5,517.5C 566.288,523.106 553.954,528.439 541.5,533.5C 541.5,532.5 541.5,531.5 541.5,530.5C 543.655,530.628 545.655,530.128 547.5,529C 543.696,526.124 539.03,524.124 533.5,523C 533.577,520.889 533.911,518.889 534.5,517C 532.111,515.861 530.111,514.361 528.5,512.5C 534.307,495.745 540.307,479.079 546.5,462.5C 552.953,463.651 558.953,465.985 564.5,469.5C 555.991,485.521 547.824,501.521 540,517.5C 545.612,509.915 551.445,502.582 557.5,495.5 Z"/></g>
<g><path style="opacity:1" fill="#7778c3" d="M 519.5,450.5 C 520.5,450.5 521.5,450.5 522.5,450.5C 527.437,453.596 532.77,455.929 538.5,457.5C 535.074,475.038 531.408,492.538 527.5,510C 527.528,511.07 527.861,511.903 528.5,512.5C 530.111,514.361 532.111,515.861 534.5,517C 533.911,518.889 533.577,520.889 533.5,523C 539.03,524.124 543.696,526.124 547.5,529C 545.655,530.128 543.655,530.628 541.5,530.5C 541.5,531.5 541.5,532.5 541.5,533.5C 536.167,535.833 530.833,538.167 525.5,540.5C 525.509,538.692 525.009,537.025 524,535.5C 520.931,530.074 517.431,525.074 513.5,520.5C 515.256,519.448 515.923,517.781 515.5,515.5C 516.875,493.836 518.208,472.169 519.5,450.5 Z"/></g>
<g><path style="opacity:1" fill="#a086c0" d="M 404.5,506.5 C 404.263,510.273 404.763,513.94 406,517.5C 412.416,525.263 418.083,533.596 423,542.5C 424.264,544.607 426.097,545.607 428.5,545.5C 428.343,546.873 428.51,548.207 429,549.5C 433.362,554.887 436.695,560.887 439,567.5C 443.521,570.357 447.021,574.19 449.5,579C 448.207,579.49 446.873,579.657 445.5,579.5C 440.738,578.284 436.405,576.284 432.5,573.5C 433.873,573.657 435.207,573.49 436.5,573C 434.473,571.604 434.14,569.938 435.5,568C 431.824,562.905 428.657,557.405 426,551.5C 425.086,552.654 424.253,552.487 423.5,551C 423.957,550.586 424.291,550.086 424.5,549.5C 422.711,547.967 420.711,546.967 418.5,546.5C 415.988,541.519 413.321,536.519 410.5,531.5C 408.614,530.15 407.114,528.483 406,526.5C 405.259,527.641 404.425,527.641 403.5,526.5C 399.746,520.052 398.746,513.218 400.5,506C 396.734,503.639 393.067,503.473 389.5,505.5C 388.583,504.873 387.583,504.539 386.5,504.5C 387.914,502.946 389.581,501.612 391.5,500.5C 395.863,502.506 400.196,504.506 404.5,506.5 Z"/></g>
<g><path style="opacity:1" fill="#9985c2" d="M 432.5,573.5 C 428.203,572.345 424.203,570.679 420.5,568.5C 423.347,568.782 426.013,568.782 428.5,568.5C 425.652,564.832 423.486,560.832 422,556.5C 419.889,554.322 417.389,552.655 414.5,551.5C 413.054,549.382 412.387,547.049 412.5,544.5C 411.5,544.5 410.5,544.5 409.5,544.5C 409.5,543.5 409.5,542.5 409.5,541.5C 408.448,541.649 407.448,541.483 406.5,541C 407.28,539.927 407.113,538.76 406,537.5C 405.586,537.957 405.086,538.291 404.5,538.5C 401.729,534.554 398.729,530.72 395.5,527C 396.167,526.667 396.833,526.333 397.5,526C 396.174,524.321 394.007,522.821 391,521.5C 390.604,519.04 389.437,517.04 387.5,515.5C 388.04,514.252 388.707,513.085 389.5,512C 387.096,511.492 386.429,510.325 387.5,508.5C 385.698,507.725 385.031,506.725 385.5,505.5C 385.5,504.833 385.833,504.5 386.5,504.5C 387.583,504.539 388.583,504.873 389.5,505.5C 393.067,503.473 396.734,503.639 400.5,506C 398.746,513.218 399.746,520.052 403.5,526.5C 404.425,527.641 405.259,527.641 406,526.5C 407.114,528.483 408.614,530.15 410.5,531.5C 413.321,536.519 415.988,541.519 418.5,546.5C 420.711,546.967 422.711,547.967 424.5,549.5C 424.291,550.086 423.957,550.586 423.5,551C 424.253,552.487 425.086,552.654 426,551.5C 428.657,557.405 431.824,562.905 435.5,568C 434.14,569.938 434.473,571.604 436.5,573C 435.207,573.49 433.873,573.657 432.5,573.5 Z"/></g>
<g><path style="opacity:1" fill="#b38ab7" d="M 428.5,516.5 C 431.5,517.833 434.5,519.167 437.5,520.5C 437.414,521.496 437.748,522.329 438.5,523C 442.82,525.141 446.653,527.307 450,529.5C 450.116,533.708 450.782,538.042 452,542.5C 452.605,545.306 453.938,547.64 456,549.5C 456.195,556.176 459.361,561.51 465.5,565.5C 466.902,566.842 466.569,567.676 464.5,568C 466.303,568.637 467.636,569.803 468.5,571.5C 469.736,572.246 471.07,572.579 472.5,572.5C 472.392,574.514 473.058,576.18 474.5,577.5C 473.5,579.167 472.167,580.5 470.5,581.5C 469.193,580.198 469.193,578.865 470.5,577.5C 468.453,575.985 466.119,575.151 463.5,575C 462.289,573.887 462.289,572.72 463.5,571.5C 462.924,568.876 461.59,568.209 459.5,569.5C 457.947,568.561 456.613,567.394 455.5,566C 455.905,565.055 456.572,564.388 457.5,564C 455.226,561.091 452.559,558.591 449.5,556.5C 448.749,557.376 448.249,558.376 448,559.5C 447.667,557.5 447.333,555.5 447,553.5C 445.391,552.853 443.891,552.02 442.5,551C 446.278,549.36 446.278,548.193 442.5,547.5C 442.62,545.266 442.287,543.099 441.5,541C 438.535,537.325 436.201,533.659 434.5,530C 436.108,529.342 437.275,529.842 438,531.5C 438.551,529.647 437.885,528.313 436,527.5C 434.817,528.731 433.651,528.731 432.5,527.5C 433.376,526.749 434.376,526.249 435.5,526C 432.184,523.523 429.851,520.356 428.5,516.5 Z"/></g>
<g><path style="opacity:1" fill="#b0b4d8" d="M 515.5,515.5 C 515.923,517.781 515.256,519.448 513.5,520.5C 513.5,519.167 513.5,517.833 513.5,516.5C 514.167,516.167 514.833,515.833 515.5,515.5 Z"/></g>
<g><path style="opacity:1" fill="#f7c179" d="M 629.5,501.5 C 631.527,501.338 633.527,501.505 635.5,502C 649.5,513.333 663.5,524.667 677.5,536C 639.059,553.304 600.559,570.471 562,587.5C 547.344,575.751 533.177,563.418 519.5,550.5C 520.779,548.854 522.445,547.687 524.5,547C 559.725,532.101 594.725,516.934 629.5,501.5 Z"/></g>
<g><path style="opacity:1" fill="#bc8db1" d="M 437.5,520.5 C 445.951,523.892 454.284,527.559 462.5,531.5C 461.492,533.946 462.492,535.446 465.5,536C 464.664,537.243 464.997,538.41 466.5,539.5C 468.677,538.496 469.011,539.162 467.5,541.5C 468.727,542.59 469.56,543.924 470,545.5C 471.399,546.227 472.899,546.727 474.5,547C 474.034,548.299 474.034,549.799 474.5,551.5C 475.5,551.5 476.5,551.5 477.5,551.5C 477.67,552.822 477.337,553.989 476.5,555C 478.863,557.555 481.696,559.388 485,560.5C 486.559,562.217 487.392,564.217 487.5,566.5C 483.46,570.542 479.127,574.209 474.5,577.5C 473.058,576.18 472.392,574.514 472.5,572.5C 471.07,572.579 469.736,572.246 468.5,571.5C 467.636,569.803 466.303,568.637 464.5,568C 466.569,567.676 466.902,566.842 465.5,565.5C 459.361,561.51 456.195,556.176 456,549.5C 453.938,547.64 452.605,545.306 452,542.5C 450.782,538.042 450.116,533.708 450,529.5C 446.653,527.307 442.82,525.141 438.5,523C 437.748,522.329 437.414,521.496 437.5,520.5 Z"/></g>
<g><path style="opacity:1" fill="#8d83c4" d="M 385.5,505.5 C 385.031,506.725 385.698,507.725 387.5,508.5C 386.429,510.325 387.096,511.492 389.5,512C 388.707,513.085 388.04,514.252 387.5,515.5C 389.437,517.04 390.604,519.04 391,521.5C 394.007,522.821 396.174,524.321 397.5,526C 396.833,526.333 396.167,526.667 395.5,527C 398.729,530.72 401.729,534.554 404.5,538.5C 405.086,538.291 405.586,537.957 406,537.5C 407.113,538.76 407.28,539.927 406.5,541C 407.448,541.483 408.448,541.649 409.5,541.5C 409.5,542.5 409.5,543.5 409.5,544.5C 410.5,544.5 411.5,544.5 412.5,544.5C 412.387,547.049 413.054,549.382 414.5,551.5C 417.389,552.655 419.889,554.322 422,556.5C 423.486,560.832 425.652,564.832 428.5,568.5C 426.013,568.782 423.347,568.782 420.5,568.5C 411.981,565.07 403.648,561.403 395.5,557.5C 396.5,557.5 397.5,557.5 398.5,557.5C 398.662,555.473 398.495,553.473 398,551.5C 397.667,551.833 397.333,552.167 397,552.5C 395.748,550.999 394.748,549.332 394,547.5C 392.751,549.992 391.584,549.825 390.5,547C 389.552,546.517 388.552,546.351 387.5,546.5C 387.67,545.178 387.337,544.011 386.5,543C 382.633,540.302 378.633,537.802 374.5,535.5C 374.709,534.914 375.043,534.414 375.5,534C 373.754,533.529 372.087,532.862 370.5,532C 371.022,531.439 371.355,530.772 371.5,530C 370.262,527.455 368.929,524.955 367.5,522.5C 368.242,521.713 369.075,521.047 370,520.5C 370.692,519.563 370.525,518.897 369.5,518.5C 374.427,513.698 379.76,509.365 385.5,505.5 Z"/></g>
<g><path style="opacity:1" fill="#7e80c7" d="M 369.5,518.5 C 370.525,518.897 370.692,519.563 370,520.5C 369.075,521.047 368.242,521.713 367.5,522.5C 368.929,524.955 370.262,527.455 371.5,530C 371.355,530.772 371.022,531.439 370.5,532C 372.087,532.862 373.754,533.529 375.5,534C 375.043,534.414 374.709,534.914 374.5,535.5C 378.633,537.802 382.633,540.302 386.5,543C 387.337,544.011 387.67,545.178 387.5,546.5C 388.552,546.351 389.552,546.517 390.5,547C 391.584,549.825 392.751,549.992 394,547.5C 394.748,549.332 395.748,550.999 397,552.5C 397.333,552.167 397.667,551.833 398,551.5C 398.495,553.473 398.662,555.473 398.5,557.5C 397.5,557.5 396.5,557.5 395.5,557.5C 379.222,550.693 363.222,543.36 347.5,535.5C 354.852,529.809 362.185,524.143 369.5,518.5 Z"/></g>
<g><path style="opacity:1" fill="#c491ad" d="M 462.5,531.5 C 476.385,537.359 490.219,543.359 504,549.5C 504.667,550.167 504.667,550.833 504,551.5C 498.33,556.337 492.83,561.337 487.5,566.5C 487.392,564.217 486.559,562.217 485,560.5C 481.696,559.388 478.863,557.555 476.5,555C 477.337,553.989 477.67,552.822 477.5,551.5C 476.5,551.5 475.5,551.5 474.5,551.5C 474.034,549.799 474.034,548.299 474.5,547C 472.899,546.727 471.399,546.227 470,545.5C 469.56,543.924 468.727,542.59 467.5,541.5C 469.011,539.162 468.677,538.496 466.5,539.5C 464.997,538.41 464.664,537.243 465.5,536C 462.492,535.446 461.492,533.946 462.5,531.5 Z"/></g>
<g><path style="opacity:1" fill="#ad88ba" d="M 407.5,507.5 C 414.418,510.695 421.418,513.695 428.5,516.5C 429.851,520.356 432.184,523.523 435.5,526C 434.376,526.249 433.376,526.749 432.5,527.5C 433.651,528.731 434.817,528.731 436,527.5C 437.885,528.313 438.551,529.647 438,531.5C 437.275,529.842 436.108,529.342 434.5,530C 436.201,533.659 438.535,537.325 441.5,541C 442.287,543.099 442.62,545.266 442.5,547.5C 446.278,548.193 446.278,549.36 442.5,551C 443.891,552.02 445.391,552.853 447,553.5C 447.333,555.5 447.667,557.5 448,559.5C 448.249,558.376 448.749,557.376 449.5,556.5C 452.559,558.591 455.226,561.091 457.5,564C 456.572,564.388 455.905,565.055 455.5,566C 456.613,567.394 457.947,568.561 459.5,569.5C 461.59,568.209 462.924,568.876 463.5,571.5C 462.289,572.72 462.289,573.887 463.5,575C 466.119,575.151 468.453,575.985 470.5,577.5C 469.193,578.865 469.193,580.198 470.5,581.5C 468.133,583.862 465.467,585.862 462.5,587.5C 459.498,586.666 456.832,585.333 454.5,583.5C 453.763,581.695 452.763,580.029 451.5,578.5C 452.025,577.808 452.692,577.308 453.5,577C 451.68,573.864 449.68,570.864 447.5,568C 448.517,566.951 448.684,565.784 448,564.5C 447.586,564.957 447.086,565.291 446.5,565.5C 445.756,564.009 445.09,562.509 444.5,561C 445.833,559.16 445.666,558.66 444,559.5C 441.667,557.288 440.834,554.788 441.5,552C 436.098,547.05 431.264,541.55 427,535.5C 426.667,535.833 426.333,536.167 426,536.5C 425.118,533.211 424.452,529.877 424,526.5C 422.842,526.002 422.009,525.169 421.5,524C 422.893,522.699 423.393,521.199 423,519.5C 422.667,519.833 422.333,520.167 422,520.5C 420.391,517.24 418.058,515.574 415,515.5C 412.217,512.891 409.717,510.224 407.5,507.5 Z"/></g>
<g><path style="opacity:1" fill="#5f68b9" d="M 507.5,556.5 C 508.167,575.997 508.5,595.664 508.5,615.5C 508.5,635.512 507.833,655.178 506.5,674.5C 471.461,658.564 436.628,642.23 402,625.5C 400.235,622.968 398.735,620.301 397.5,617.5C 396.545,606.551 396.211,595.551 396.5,584.5C 402.796,586.642 409.13,588.808 415.5,591C 434.509,600.172 453.842,608.672 473.5,616.5C 485.853,598.461 497.187,579.794 507.5,560.5C 507.253,559.287 506.586,558.62 505.5,558.5C 505.833,557.5 506.5,556.833 507.5,556.5 Z"/></g>
<g><path style="opacity:1" fill="#60b3e5" d="M 516.5,555.5 C 516.833,556.167 517.167,556.833 517.5,557.5C 517.338,559.527 517.505,561.527 518,563.5C 529.167,581.167 540.333,598.833 551.5,616.5C 576.497,605.287 601.497,594.287 626.5,583.5C 627.496,577.202 627.83,570.868 627.5,564.5C 628.662,581.328 628.828,598.328 628,615.5C 627.35,618.965 625.85,621.965 623.5,624.5C 588.233,642.3 552.566,659.3 516.5,675.5C 515.167,635.5 515.167,595.5 516.5,555.5 Z"/></g>
<g><path style="opacity:1" fill="#5598ce" d="M 517.5,557.5 C 532.08,569.711 546.58,582.045 561,594.5C 583.015,584.074 605.181,574.074 627.5,564.5C 627.83,570.868 627.496,577.202 626.5,583.5C 601.497,594.287 576.497,605.287 551.5,616.5C 540.333,598.833 529.167,581.167 518,563.5C 517.505,561.527 517.338,559.527 517.5,557.5 Z"/></g>
<g><path style="opacity:1" fill="#8592ca" d="M 507.5,556.5 C 507.56,555.957 507.893,555.624 508.5,555.5C 509.5,595.494 509.833,635.494 509.5,675.5C 508.209,675.737 507.209,675.404 506.5,674.5C 507.833,655.178 508.5,635.512 508.5,615.5C 508.5,595.664 508.167,575.997 507.5,556.5 Z"/></g>
<g><path style="opacity:1" fill="#5057a5" d="M 505.5,558.5 C 506.586,558.62 507.253,559.287 507.5,560.5C 497.187,579.794 485.853,598.461 473.5,616.5C 453.842,608.672 434.509,600.172 415.5,591C 409.13,588.808 402.796,586.642 396.5,584.5C 395.877,577.745 396.544,571.412 398.5,565.5C 420.06,575.355 441.726,585.022 463.5,594.5C 465.944,593.233 468.277,591.733 470.5,590C 481.739,578.923 493.406,568.423 505.5,558.5 Z"/></g>
<g><path style="opacity:1" fill="#dadee9" d="M 398.5,565.5 C 396.544,571.412 395.877,577.745 396.5,584.5C 396.211,595.551 396.545,606.551 397.5,617.5C 396.883,617.389 396.383,617.056 396,616.5C 395.5,599.17 395.333,581.837 395.5,564.5C 396.791,564.263 397.791,564.596 398.5,565.5 Z"/></g>
<g><path style="opacity:1" fill="#d1e9f3" d="M 516.5,555.5 C 515.167,595.5 515.167,635.5 516.5,675.5C 516.44,676.043 516.107,676.376 515.5,676.5C 514.167,635.833 514.167,595.167 515.5,554.5C 516.107,554.624 516.44,554.957 516.5,555.5 Z"/></g>
</svg>
